<?xml version="1.0" standalone="no"?>
<!DOCTYPE svg PUBLIC "-//W3C//DTD SVG 20010904//EN"
 "http://www.w3.org/TR/2001/REC-SVG-20010904/DTD/svg10.dtd">
<svg version="1.0" xmlns="http://www.w3.org/2000/svg"
 width="400.000000pt" height="400.000000pt" viewBox="0 0 400.000000 400.000000"
 preserveAspectRatio="xMidYMid meet">
<metadata>
Created by potrace 1.14, written by Peter Selinger 2001-2017
</metadata>
<g transform="translate(0.000000,400.000000) scale(0.100000,-0.100000)"
fill="#000000" stroke="none">
<path d="M0 2000 l0 -2000 2000 0 2000 0 0 2000 0 2000 -2000 0 -2000 0 0
-2000z m1784 782 c9 -11 45 -99 80 -198 35 -98 99 -273 141 -389 43 -115 99
-271 125 -345 26 -74 82 -228 124 -343 42 -114 76 -216 76 -226 0 -22 -44 -61
-70 -61 -26 0 -45 28 -75 105 -15 39 -31 77 -35 85 -4 8 -15 40 -23 71 -9 31
-24 69 -32 85 -8 16 -15 36 -15 44 0 9 -4 20 -9 25 -5 6 -14 26 -20 45 -14 47
-56 169 -69 200 -6 14 -29 75 -51 135 -22 61 -78 214 -125 341 -131 356 -138
378 -125 408 18 38 75 48 103 18z m-392 -179 c10 -9 18 -29 18 -44 0 -34 -24
-53 -165 -134 -55 -31 -140 -81 -190 -110 -85 -50 -273 -157 -360 -205 -81
-45 -106 -63 -98 -70 4 -5 85 -52 178 -105 94 -54 206 -119 250 -145 44 -25
141 -82 215 -125 74 -43 143 -85 153 -93 32 -28 17 -89 -27 -105 -18 -7 -83
19 -136 54 -14 9 -61 37 -105 61 -44 25 -134 77 -200 115 -294 171 -385 223
-390 223 -3 0 -35 18 -70 41 -72 45 -87 74 -62 113 9 13 85 63 169 111 84 48
200 116 258 150 140 82 372 216 440 254 62 34 95 38 122 14z m1446 -74 c86
-51 182 -105 212 -122 30 -16 67 -38 82 -48 14 -11 29 -19 32 -19 4 0 66 -35
139 -77 72 -42 165 -96 204 -119 100 -57 105 -61 101 -103 -2 -29 -11 -40 -43
-62 -50 -33 -285 -169 -293 -169 -3 0 -13 -6 -21 -14 -9 -8 -43 -28 -76 -46
-33 -17 -73 -39 -90 -49 -16 -10 -48 -28 -70 -41 -160 -90 -206 -117 -259
-150 -87 -53 -111 -57 -141 -24 -47 51 -35 69 100 148 133 79 510 297 607 353
43 24 80 48 83 53 3 5 -27 28 -67 51 -40 23 -120 70 -178 104 -58 34 -168 97
-245 140 -289 161 -324 186 -325 228 0 25 36 57 66 57 14 0 95 -41 182 -91z"/>
</g>
</svg>
